#!OML:ASF E:\motion texture\Top Level 1\Subject 1\Session 1\male.ASF
:FULLY-SPECIFIED
:DEGREES
638
root -39.612 18.1542 3.71929 445.666 -82.7943 -442.008
lowerback -1.32028 -0.194125 5.30925
upperback -4.55876 -0.261845 5.27922
thorax -3.97614 -0.310787 2.51019
lowerneck -9.06483 -0.861885 -4.8524
upperneck -13.6807 -0.531358 10.5577
head -2.50854 -0.548748 4.0438
rclavicle -5.56597e-015 1.90833e-014
rhumerus 77.9227 1.82995 -46.2129
rradius 60.5401
rwrist 17.5389
rhand -23.2715 -22.5739
rfingers 7.12502
rthumb 3.18089 -52.5299
lclavicle -5.56597e-015 1.90833e-014
lhumerus 74.1429 -10.6666 68.3766
lradius 56.1898
lwrist 27.0182
lhand -8.16127 41.6581
lfingers 7.12502
lthumb 17.7537 70.8676
rfemur -11.553 3.00416 29.7055
rtibia 21.536
rfoot -7.05171 -11.9899
rtoes 11.0038
lfemur -22.89 -0.347618 -9.32685
ltibia 49.2458
lfoot -2.82085 1.46816
ltoes -19.53
639
root -39.7531 18.1616 3.71278 447.262 -82.716 -443.542
lowerback -1.2806 -0.163869 5.40904
upperback -4.59848 -0.217269 5.34998
thorax -4.04153 -0.294257 2.52939
lowerneck -9.02178 -0.83529 -4.84316
upperneck -13.7858 -0.493705 10.5821
head -2.5493 -0.536783 4.05202
rclavicle -1.74931e-014 7.79236e-014
rhumerus 78.1283 1.63096 -46.449
rradius 60.6472
rwrist 18.0512
rhand -23.5709 -22.506
rfingers 7.12502
rthumb 2.89174 -52.4661
lclavicle -1.74931e-014 7.79236e-014
lhumerus 74.4561 -10.6742 68.6482
lradius 56.2126
lwrist 27.6485
lhand -8.16215 42.1743
lfingers 7.12502
lthumb 17.7528 71.384
rfemur -11.0226 3.0924 29.8943
rtibia 21.3936
rfoot -7.33529 -11.8874
rtoes 10.6004
lfemur -23.5189 -0.176311 -9.28545
ltibia 48.2735
lfoot -3.36278 2.13701
ltoes -19.2501
640
root -39.8937 18.1679 3.7073 448.904 -82.6428 -445.113
lowerback -1.24603 -0.135149 5.4975
upperback -4.64002 -0.175085 5.41816
thorax -4.10584 -0.278609 2.55223
lowerneck -8.98472 -0.808176 -4.82787
upperneck -13.871 -0.456559 10.6027
head -2.58324 -0.524449 4.0577
rclavicle 7.55382e-015 -2.38542e-014
rhumerus 78.3082 1.43662 -46.7008
rradius 60.7878
rwrist 18.5889
rhand -23.9023 -22.4452
rfingers 7.12502
rthumb 2.57173 -52.4094
lclavicle 7.55382e-015 -2.38542e-014
lhumerus 74.7559 -10.7009 68.9215
lradius 56.2684
lwrist 28.2967
lhand -8.17688 42.7053
lfingers 7.12502
lthumb 17.7386 71.9162
rfemur -10.5092 3.18034 30.0647
rtibia 21.262
rfoot -7.61565 -11.7776
rtoes 10.1903
lfemur -24.1129 -0.0139672 -9.25291
ltibia 47.1942
lfoot -3.8962 2.77954
ltoes -18.9631
641
root -40.0337 18.1733 3.70275 450.598 -82.5725 -446.73
lowerback -1.21683 -0.108215 5.57539
upperback -4.68403 -0.135661 5.48368
thorax -4.16964 -0.264065 2.57826
lowerneck -8.93836 -0.777432 -4.8176
upperneck -13.9477 -0.413548 10.6342
head -2.61635 -0.509171 4.06753
rclavicle 7.65321e-015 -5.96354e-014
rhumerus 78.4568 1.24941 -46.9697
rradius 60.9628
rwrist 19.1514
rhand -24.277 -22.3765
rfingers 7.12502
rthumb 2.20983 -52.3448
lclavicle 7.65321e-015 -5.96354e-014
lhumerus 75.0383 -10.7498 69.1922
lradius 56.362
lwrist 28.9602
lhand -8.20433 43.2466
lfingers 7.12502
lthumb 17.7122 72.4599
rfemur -10.0136 3.27024 30.219
rtibia 21.1443
rfoot -7.89361 -11.6619
rtoes 9.77179
lfemur -24.6702 0.1384 -9.22497
ltibia 46.0125
lfoot -4.40459 3.39296
ltoes -18.6669
642
root -40.1732 18.1775 3.69905 452.331 -82.5031 -448.379
lowerback -1.1926 -0.0832456 5.6433
upperback -4.72891 -0.0992845 5.5461
thorax -4.23147 -0.25072 2.60664
lowerneck -8.89532 -0.745671 -4.80262
upperneck -14.0044 -0.36995 10.6658
head -2.64306 -0.493064 4.07627
rclavicle -8.94531e-016 1.03368e-014
rhumerus 78.5685 1.06755 -47.2541
rradius 61.1806
rwrist 19.7345
rhand -24.6785 -22.3277
rfingers 7.12502
rthumb 1.82203 -52.2996
lclavicle -8.94531e-016 1.03368e-014
lhumerus 75.304 -10.8241 69.4544
lradius 56.4994
lwrist 29.636
lhand -8.24648 43.7921
lfingers 7.12502
lthumb 17.6717 73.0091
rfemur -9.53387 3.36086 30.3586
rtibia 21.0413
rfoot -8.17003 -11.5414
rtoes 9.34534
lfemur -25.1899 0.278327 -9.1984
ltibia 44.7378
lfoot -4.87743 3.97142
ltoes -18.366
